<svg width="136" height="78" viewBox="0 0 136 78" fill="none" xmlns="http://www.w3.org/2000/svg">
<g clip-path="url(#clip0_252_7414)">
<path d="M132.283 35.4444C130.953 33.5717 130.402 31.2879 130.769 29.0498C131.09 26.9944 131.182 24.8476 130.953 22.6552C129.76 10.4141 119.344 0.548169 107.001 6.11935e-05C98.4669 -0.365344 90.8043 3.47141 85.9865 9.63762C84.0135 12.1498 80.7557 13.4287 77.5439 13.2003C74.332 12.9719 71.2119 12.8349 67.9541 12.8349C64.1916 12.8349 60.5209 13.0176 56.8961 13.2917C54.0972 13.5201 51.4818 12.2868 49.83 10.0487C44.278 2.64925 34.6883 -1.59859 24.2726 0.548169C15.4629 2.3752 8.16734 9.13519 5.59784 17.7222C4.45074 21.559 4.26721 25.2587 4.77193 28.7757C5.18489 31.4249 4.54251 34.0741 3.12011 36.3122C1.10121 39.4638 0 42.8438 0 46.3152C0 61.6622 20.7854 77.3289 49.7382 77.7857C55.4278 77.8771 62.4939 74.6341 70.0648 74.7711C78.1862 74.9538 84.0594 77.5573 91.1714 77.7857C117.738 78.6079 136.046 60.7944 136.046 46.3152C136.046 42.5241 134.715 38.87 132.329 35.4444H132.283ZM23.0796 36.9517C14.0405 36.9517 6.69906 29.6436 6.69906 20.6455C6.69906 11.6474 13.9946 4.33925 23.0337 4.33925C32.0729 4.33925 39.4143 11.6474 39.4143 20.6455C39.4143 29.6436 32.0729 36.9517 23.0337 36.9517H23.0796ZM63.1822 43.803C62.2645 43.803 61.4845 42.9352 61.4845 41.839C61.4845 40.7427 62.2186 39.8749 63.1822 39.8749C64.1458 39.8749 64.8799 40.7427 64.8799 41.839C64.8799 42.9352 64.0999 43.803 63.1822 43.803ZM72.8637 43.803C71.946 43.803 71.166 42.9352 71.166 41.839C71.166 40.7427 71.946 39.8749 72.8637 39.8749C73.7814 39.8749 74.5614 40.7427 74.5614 41.839C74.5614 42.9352 73.7814 43.803 72.8637 43.803ZM112.783 36.9517C103.744 36.9517 96.4022 29.6436 96.4022 20.6455C96.4022 11.6474 103.744 4.33925 112.783 4.33925C121.822 4.33925 129.163 11.6474 129.163 20.6455C129.163 29.6436 121.822 36.9517 112.783 36.9517Z" fill="black"/>
<path d="M27.8972 27.7708C31.8503 27.7708 35.055 24.5807 35.055 20.6454C35.055 16.7102 31.8503 13.52 27.8972 13.52C23.944 13.52 20.7393 16.7102 20.7393 20.6454C20.7393 24.5807 23.944 27.7708 27.8972 27.7708Z" fill="black"/>
<path d="M108.378 27.7708C112.331 27.7708 115.536 24.5807 115.536 20.6454C115.536 16.7102 112.331 13.52 108.378 13.52C104.424 13.52 101.22 16.7102 101.22 20.6454C101.22 24.5807 104.424 27.7708 108.378 27.7708Z" fill="black"/>
</g>
<defs>
<clipPath id="clip0_252_7414">
<rect width="136" height="77.8313" fill="white"/>
</clipPath>
</defs>
</svg>
